<?xml version="1.0" encoding="UTF-8"?>
<svg id="Layer_1" xmlns="http://www.w3.org/2000/svg" xmlns:xlink="http://www.w3.org/1999/xlink" viewBox="0 0 500 500">
  <defs>
    <style>
      .cls-1 {
        fill: url(#linear-gradient-13);
      }

      .cls-2 {
        fill: url(#linear-gradient-2);
      }

      .cls-3 {
        fill: url(#linear-gradient-10);
      }

      .cls-4 {
        fill: url(#linear-gradient-12);
      }

      .cls-5 {
        fill: url(#linear-gradient-4);
      }

      .cls-6 {
        fill: url(#linear-gradient-3);
      }

      .cls-7 {
        fill: url(#linear-gradient-5);
      }

      .cls-8 {
        fill: url(#linear-gradient-8);
      }

      .cls-9 {
        fill: url(#linear-gradient-14);
      }

      .cls-10 {
        fill: url(#linear-gradient-7);
      }

      .cls-11 {
        fill: url(#linear-gradient-9);
      }

      .cls-12 {
        fill: url(#linear-gradient-11);
      }

      .cls-13 {
        fill: url(#linear-gradient-6);
      }

      .cls-14 {
        fill: url(#linear-gradient);
      }
    </style>
    <linearGradient id="linear-gradient" x1="229.38" y1="159.84" x2="307.8" y2="159.84" gradientUnits="userSpaceOnUse">
      <stop offset="0" stop-color="#ec008c"/>
      <stop offset=".96" stop-color="#ef4136"/>
      <stop offset="1" stop-color="#da1c5c"/>
    </linearGradient>
    <linearGradient id="linear-gradient-2" x1="217.36" y1="186.62" x2="267.77" y2="186.62" xlink:href="#linear-gradient"/>
    <linearGradient id="linear-gradient-3" x1="199.88" y1="194.44" x2="268.89" y2="194.44" xlink:href="#linear-gradient"/>
    <linearGradient id="linear-gradient-4" x1="187.73" y1="202.95" x2="266.9" y2="202.95" xlink:href="#linear-gradient"/>
    <linearGradient id="linear-gradient-5" x1="204.44" y1="240.6" x2="303.83" y2="240.6" xlink:href="#linear-gradient"/>
    <linearGradient id="linear-gradient-6" x1="217.36" y1="186.62" x2="267.77" y2="186.62" xlink:href="#linear-gradient"/>
    <linearGradient id="linear-gradient-7" x1="199.88" y1="194.44" x2="268.89" y2="194.44" xlink:href="#linear-gradient"/>
    <linearGradient id="linear-gradient-8" x1="187.73" y1="202.95" x2="266.9" y2="202.95" xlink:href="#linear-gradient"/>
    <linearGradient id="linear-gradient-9" x1="204.44" y1="240.6" x2="303.83" y2="240.6" xlink:href="#linear-gradient"/>
    <linearGradient id="linear-gradient-10" x1="217.36" y1="186.62" x2="267.77" y2="186.62" xlink:href="#linear-gradient"/>
    <linearGradient id="linear-gradient-11" x1="199.88" y1="194.44" x2="268.89" y2="194.44" xlink:href="#linear-gradient"/>
    <linearGradient id="linear-gradient-12" x1="187.73" y1="202.95" x2="266.9" y2="202.95" xlink:href="#linear-gradient"/>
    <linearGradient id="linear-gradient-13" x1="204.44" y1="240.6" x2="303.83" y2="240.6" xlink:href="#linear-gradient"/>
    <linearGradient id="linear-gradient-14" x1="139.94" y1="300.68" x2="381.04" y2="300.68" gradientUnits="userSpaceOnUse">
      <stop offset=".04" stop-color="#ec008c"/>
      <stop offset=".84" stop-color="#ef4136"/>
      <stop offset=".94" stop-color="#da1c5c"/>
    </linearGradient>
  </defs>
  <g>
    <path class="cls-14" d="M236.27,182.91c5.75-5.03,12.51-19.71,28.05-20.14,15.54-.43,26.32,15.23,32.37,13.67,6.05-1.56,12.67-20.08,10.79-24.46s-23.74-18.7-45.31-15.1c-11.51.72-29.1,7.59-31.65,13.67s0,0,0,0h0c-1.34,20.9-.15,31.82,3.59,32.77.65.16,1.37.03,2.17-.4Z"/>
    <path class="cls-2" d="M232.36,139.68c-7.26-7.26-13.19,2.42-14.29,4.18-3.74,19.13,8.58,42.66,8.58,42.66,3.8,8.63,10.19,20.4,20.89,32.11,7.06,7.73,14.19,13.45,20.23,17.59-5.78-4.68-12.99-11.49-19.79-20.89-8.28-11.45-13.49-18.49-16.05-26.39-1.76-5.04-17.81-37.16.44-49.26Z"/>
    <path class="cls-6" d="M212.84,153.42c-8.68-5.22-12.28,5.32-12.96,7.25.65,19.01,17.9,38.51,17.9,38.51,5.62,7.31,14.48,17.02,27.5,25.67,8.6,5.71,16.81,9.5,23.61,12.05-6.67-3.11-15.21-7.92-23.92-15.28-10.62-8.97-17.26-14.44-21.52-21.36-2.84-4.38-25.65-31.18-10.61-46.84Z"/>
    <path class="cls-5" d="M198.27,170.22c-9.08-3.09-10.3,7.39-10.54,9.31,4.42,17.47,24.3,32.06,24.3,32.06,6.67,5.64,16.82,12.85,30.61,18.24,9.1,3.56,17.47,5.42,24.27,6.41-6.8-1.54-15.67-4.28-25.21-9.34-11.63-6.17-18.87-9.91-24.2-15.45-3.51-3.48-29.99-23.71-19.22-41.23Z"/>
    <path class="cls-7" d="M204.44,217.97c4.44,5.22,24.08,27.34,48.6,27.51,4.61.03,8.83-.72,9.46-.83,17.76-3.23,28.87-14.79,33.43-20.21,3.52,1.88,7.92,20.42,7.92,20.42-2.33,2.94-5.99,6.88-11.34,10.36-7.5,4.88-14.73,6.54-19.01,7.18-5.69.93-16.77,1.95-29.66-2.19-15.08-4.85-24.3-14.09-28.18-18.47-.44-1.67-7.92-6.04-11.22-23.76Z"/>
  </g>
  <g>
    <path class="cls-14" d="M236.27,182.91c5.75-5.03,12.51-19.71,28.05-20.14,15.54-.43,26.32,15.23,32.37,13.67,6.05-1.56,12.67-20.08,10.79-24.46s-23.74-18.7-45.31-15.1c-11.51.72-29.1,7.59-31.65,13.67s0,0,0,0h0c-1.34,20.9-.15,31.82,3.59,32.77.65.16,1.37.03,2.17-.4Z"/>
    <path class="cls-13" d="M232.36,139.68c-7.26-7.26-13.19,2.42-14.29,4.18-3.74,19.13,8.58,42.66,8.58,42.66,3.8,8.63,10.19,20.4,20.89,32.11,7.06,7.73,14.19,13.45,20.23,17.59-5.78-4.68-12.99-11.49-19.79-20.89-8.28-11.45-13.49-18.49-16.05-26.39-1.76-5.04-17.81-37.16.44-49.26Z"/>
    <path class="cls-10" d="M212.84,153.42c-8.68-5.22-12.28,5.32-12.96,7.25.65,19.01,17.9,38.51,17.9,38.51,5.62,7.31,14.48,17.02,27.5,25.67,8.6,5.71,16.81,9.5,23.61,12.05-6.67-3.11-15.21-7.92-23.92-15.28-10.62-8.97-17.26-14.44-21.52-21.36-2.84-4.38-25.65-31.18-10.61-46.84Z"/>
    <path class="cls-8" d="M198.27,170.22c-9.08-3.09-10.3,7.39-10.54,9.31,4.42,17.47,24.3,32.06,24.3,32.06,6.67,5.64,16.82,12.85,30.61,18.24,9.1,3.56,17.47,5.42,24.27,6.41-6.8-1.54-15.67-4.28-25.21-9.34-11.63-6.17-18.87-9.91-24.2-15.45-3.51-3.48-29.99-23.71-19.22-41.23Z"/>
    <path class="cls-11" d="M204.44,217.97c4.44,5.22,24.08,27.34,48.6,27.51,4.61.03,8.83-.72,9.46-.83,17.76-3.23,28.87-14.79,33.43-20.21,3.52,1.88,7.92,20.42,7.92,20.42-2.33,2.94-5.99,6.88-11.34,10.36-7.5,4.88-14.73,6.54-19.01,7.18-5.69.93-16.77,1.95-29.66-2.19-15.08-4.85-24.3-14.09-28.18-18.47-.44-1.67-7.92-6.04-11.22-23.76Z"/>
  </g>
  <g>
    <path class="cls-14" d="M236.27,182.91c5.75-5.03,12.51-19.71,28.05-20.14,15.54-.43,26.32,15.23,32.37,13.67,6.05-1.56,12.67-20.08,10.79-24.46s-23.74-18.7-45.31-15.1c-11.51.72-29.1,7.59-31.65,13.67s0,0,0,0h0c-1.34,20.9-.15,31.82,3.59,32.77.65.16,1.37.03,2.17-.4Z"/>
    <path class="cls-3" d="M232.36,139.68c-7.26-7.26-13.19,2.42-14.29,4.18-3.74,19.13,8.58,42.66,8.58,42.66,3.8,8.63,10.19,20.4,20.89,32.11,7.06,7.73,14.19,13.45,20.23,17.59-5.78-4.68-12.99-11.49-19.79-20.89-8.28-11.45-13.49-18.49-16.05-26.39-1.76-5.04-17.81-37.16.44-49.26Z"/>
    <path class="cls-12" d="M212.84,153.42c-8.68-5.22-12.28,5.32-12.96,7.25.65,19.01,17.9,38.51,17.9,38.51,5.62,7.31,14.48,17.02,27.5,25.67,8.6,5.71,16.81,9.5,23.61,12.05-6.67-3.11-15.21-7.92-23.92-15.28-10.62-8.97-17.26-14.44-21.52-21.36-2.84-4.38-25.65-31.18-10.61-46.84Z"/>
    <path class="cls-4" d="M198.27,170.22c-9.08-3.09-10.3,7.39-10.54,9.31,4.42,17.47,24.3,32.06,24.3,32.06,6.67,5.64,16.82,12.85,30.61,18.24,9.1,3.56,17.47,5.42,24.27,6.41-6.8-1.54-15.67-4.28-25.21-9.34-11.63-6.17-18.87-9.91-24.2-15.45-3.51-3.48-29.99-23.71-19.22-41.23Z"/>
    <path class="cls-1" d="M204.44,217.97c4.44,5.22,24.08,27.34,48.6,27.51,4.61.03,8.83-.72,9.46-.83,17.76-3.23,28.87-14.79,33.43-20.21,3.52,1.88,7.92,20.42,7.92,20.42-2.33,2.94-5.99,6.88-11.34,10.36-7.5,4.88-14.73,6.54-19.01,7.18-5.69.93-16.77,1.95-29.66-2.19-15.08-4.85-24.3-14.09-28.18-18.47-.44-1.67-7.92-6.04-11.22-23.76Z"/>
  </g>
  <g>
    <path class="cls-9" d="M156.48,303.05l2.32,3.47-.32.22c-.23-.21-.42-.32-.56-.32s-.56.2-1.23.59c-1.4.81-2.58,1.35-3.53,1.63s-2.09.42-3.41.42c-2.63,0-4.78-.62-6.47-1.87-.99-.72-1.77-1.62-2.34-2.7-.66-1.23-.99-2.58-.99-4.06,0-2.02.59-3.77,1.77-5.26,1.77-2.24,4.45-3.36,8.04-3.36,1.32,0,2.45.14,3.39.41.94.28,2.12.82,3.54,1.64.68.38,1.09.57,1.23.57s.33-.11.56-.32l.32.22-2.32,3.48-.33-.22c.02-.13.02-.24.02-.33,0-.23-.1-.46-.3-.66-.2-.21-.57-.46-1.09-.75-1.44-.81-2.96-1.21-4.58-1.21-1.9,0-3.42.48-4.55,1.43-1.33,1.11-2,2.57-2,4.36s.67,3.25,2,4.36c1.13.95,2.65,1.43,4.55,1.43,1.61,0,3.14-.41,4.58-1.22.52-.29.88-.54,1.09-.75.2-.21.3-.43.3-.67,0-.09,0-.2-.02-.32l.33-.23Z"/>
    <path class="cls-9" d="M168.69,294.81c2.17,0,3.99.55,5.43,1.66,1.73,1.33,2.6,3.19,2.6,5.58,0,2.24-.87,4.02-2.6,5.36-1.43,1.11-3.24,1.66-5.41,1.66s-3.98-.55-5.41-1.66c-1.74-1.33-2.61-3.16-2.61-5.47s.87-4.16,2.61-5.47c1.44-1.08,3.24-1.63,5.39-1.66ZM168.7,297.4c-1.41,0-2.56.45-3.45,1.35-.82.85-1.23,1.91-1.23,3.18s.41,2.33,1.23,3.17c.89.91,2.04,1.37,3.46,1.37s2.56-.46,3.45-1.37c.82-.84,1.23-1.88,1.23-3.11,0-1.34-.41-2.42-1.23-3.25-.9-.89-2.05-1.34-3.46-1.35Z"/>
    <path class="cls-9" d="M187.55,308.77l-4.98-8.99v7.73c0,.25.06.45.17.58.11.13.32.25.61.33v.34h-4.54v-.34c.28-.07.49-.18.6-.32.12-.14.18-.33.18-.59v-11.18c0-.25-.06-.45-.17-.58-.11-.13-.32-.24-.61-.32v-.34h5.77v.34c-.38.12-.57.35-.57.7s.14.74.42,1.22l3.41,6.18,3.43-6.1c.39-.64.59-1.1.59-1.37,0-.33-.2-.54-.6-.63v-.34h5.63v.34c-.29.08-.5.19-.61.32-.11.13-.17.33-.17.58v11.17c0,.25.06.45.17.58.11.14.32.25.61.33v.34h-4.83v-.34c.28-.07.49-.18.6-.32.12-.14.18-.33.18-.59v-7.74l-5.28,8.99Z"/>
    <path class="cls-9" d="M208.01,308.77l-4.98-8.99v7.73c0,.25.06.45.17.58.11.13.32.25.61.33v.34h-4.54v-.34c.28-.07.49-.18.6-.32.12-.14.18-.33.18-.59v-11.18c0-.25-.06-.45-.17-.58-.11-.13-.32-.24-.61-.32v-.34h5.77v.34c-.38.12-.57.35-.57.7s.14.74.42,1.22l3.41,6.18,3.43-6.1c.39-.64.59-1.1.59-1.37,0-.33-.2-.54-.6-.63v-.34h5.63v.34c-.29.08-.5.19-.61.32-.11.13-.17.33-.17.58v11.17c0,.25.06.45.17.58.11.14.32.25.61.33v.34h-4.83v-.34c.28-.07.49-.18.6-.32.12-.14.18-.33.18-.59v-7.74l-5.28,8.99Z"/>
    <path class="cls-9" d="M230.09,305.35h-6.29l-.71,1.49c-.17.36-.26.64-.26.84,0,.39.26.64.78.74v.34h-5.02v-.34c.31-.05.54-.14.69-.28.15-.14.33-.41.53-.82l4.99-10.1c.19-.38.28-.72.28-1,0-.33-.23-.59-.68-.78v-.34h5.31v.34c-.45.18-.67.46-.67.83,0,.27.1.6.31.99l5.17,9.8c.28.53.51.88.67,1.03s.41.27.74.33v.34h-5.58v-.34c.53-.09.79-.34.79-.74,0-.25-.1-.56-.31-.94l-.75-1.4ZM229.11,303.44l-2.24-4.4-2.13,4.4h4.37Z"/>
    <path class="cls-9" d="M240.83,299.76v7.75c0,.25.06.45.18.58.12.14.32.25.6.33v.34h-4.54v-.34c.28-.07.49-.18.6-.32.12-.14.18-.33.18-.59v-11.18c0-.25-.06-.44-.17-.57-.11-.13-.32-.24-.61-.33v-.34h5.25v.34c-.36.09-.54.25-.54.48,0,.2.13.42.39.68l7.33,7.27v-7.53c0-.25-.06-.45-.17-.58-.11-.13-.32-.24-.61-.32v-.34h4.54v.34c-.29.08-.5.19-.61.32-.11.13-.17.33-.17.58v11.17c0,.25.06.45.17.58s.32.25.61.33v.34h-4.9v-.34c.36-.07.54-.22.54-.45,0-.11-.05-.23-.15-.35s-.32-.36-.67-.71l-7.26-7.15Z"/>
    <path class="cls-9" d="M256.44,307.52v-11.18c0-.25-.06-.44-.17-.57-.11-.13-.32-.24-.61-.33v-.34h8.02c1.67,0,2.98.21,3.94.62,1.35.59,2.32,1.55,2.92,2.9.42.94.62,2.05.62,3.31,0,2.33-.7,4.1-2.09,5.31-.63.54-1.36.93-2.21,1.17-.85.24-1.91.36-3.18.36h-8.02v-.34c.28-.07.49-.18.6-.32.12-.14.18-.33.18-.59ZM259.71,306.29h3.49c1.6,0,2.77-.37,3.49-1.1.76-.76,1.13-1.85,1.13-3.26s-.38-2.49-1.13-3.26c-.37-.38-.84-.66-1.39-.84-.55-.17-1.25-.26-2.1-.26h-3.49v8.71Z"/>
    <path class="cls-9" d="M295.94,303.05l2.32,3.47-.32.22c-.23-.21-.42-.32-.56-.32s-.56.2-1.23.59c-1.4.81-2.58,1.35-3.53,1.63s-2.09.42-3.41.42c-2.63,0-4.78-.62-6.47-1.87-.99-.72-1.77-1.62-2.34-2.7-.66-1.23-.99-2.58-.99-4.06,0-2.02.59-3.77,1.77-5.26,1.77-2.24,4.45-3.36,8.04-3.36,1.32,0,2.45.14,3.39.41.94.28,2.12.82,3.54,1.64.68.38,1.09.57,1.23.57s.33-.11.56-.32l.32.22-2.32,3.48-.33-.22c.02-.13.02-.24.02-.33,0-.23-.1-.46-.3-.66s-.57-.46-1.09-.75c-1.44-.81-2.96-1.21-4.58-1.21-1.9,0-3.42.48-4.55,1.43-1.33,1.11-2,2.57-2,4.36s.67,3.25,2,4.36c1.13.95,2.65,1.43,4.55,1.43,1.61,0,3.14-.41,4.58-1.22.52-.29.88-.54,1.09-.75.2-.21.3-.43.3-.67,0-.09,0-.2-.02-.32l.33-.23Z"/>
    <path class="cls-9" d="M304.51,302.96v3.33h8.68c.25,0,.45-.06.58-.17.13-.11.24-.32.32-.61h.34v4.04h-.34c-.07-.29-.18-.49-.32-.6s-.33-.18-.59-.18h-12.73v-.34c.29-.07.49-.18.6-.32.12-.14.18-.33.18-.59v-11.18c0-.25-.06-.44-.17-.57-.11-.13-.32-.24-.61-.33v-.34h12.35c.26,0,.46-.06.59-.17.13-.11.24-.32.32-.61h.33v4.04h-.33c-.08-.3-.19-.5-.32-.61-.13-.11-.33-.17-.59-.17h-8.3v3h5.15c.25,0,.45-.06.58-.17.13-.11.25-.32.33-.61h.33v3.94h-.33c-.08-.29-.19-.49-.32-.61-.13-.12-.33-.17-.59-.17h-5.15Z"/>
    <path class="cls-9" d="M320.25,299.76v7.75c0,.25.06.45.18.58.12.14.32.25.6.33v.34h-4.54v-.34c.28-.07.49-.18.6-.32.12-.14.18-.33.18-.59v-11.18c0-.25-.06-.44-.17-.57-.11-.13-.32-.24-.61-.33v-.34h5.25v.34c-.36.09-.54.25-.54.48,0,.2.13.42.39.68l7.33,7.27v-7.53c0-.25-.06-.45-.17-.58-.11-.13-.32-.24-.61-.32v-.34h4.54v.34c-.29.08-.5.19-.61.32-.11.13-.17.33-.17.58v11.17c0,.25.06.45.17.58.11.13.32.25.61.33v.34h-4.9v-.34c.36-.07.54-.22.54-.45,0-.11-.05-.23-.15-.35s-.32-.36-.67-.71l-7.26-7.15Z"/>
    <path class="cls-9" d="M342.62,297.58v9.93c0,.25.06.45.17.58.11.13.32.25.61.33v.34h-4.83v-.34c.29-.07.49-.18.6-.32.12-.14.18-.33.18-.59v-9.94h-4.03c-.26,0-.46.06-.59.17-.13.12-.24.32-.32.61h-.33v-4.04h.33c.07.29.18.49.31.6.13.12.33.18.59.18h11.33c.26,0,.46-.06.59-.17.13-.11.24-.32.32-.61h.33v4.04h-.33c-.08-.29-.19-.49-.32-.61-.13-.12-.33-.17-.59-.17h-4.03Z"/>
    <path class="cls-9" d="M353.5,302.96v3.33h8.68c.25,0,.45-.06.58-.17s.24-.32.32-.61h.34v4.04h-.34c-.07-.29-.18-.49-.32-.6-.14-.12-.33-.18-.59-.18h-12.73v-.34c.28-.07.49-.18.6-.32.12-.14.18-.33.18-.59v-11.18c0-.25-.06-.44-.17-.57-.11-.13-.32-.24-.61-.33v-.34h12.35c.26,0,.46-.06.59-.17.13-.11.24-.32.32-.61h.33v4.04h-.33c-.08-.3-.19-.5-.32-.61-.13-.11-.33-.17-.59-.17h-8.3v3h5.15c.25,0,.45-.06.58-.17.13-.11.25-.32.33-.61h.33v3.94h-.33c-.08-.29-.19-.49-.32-.61-.13-.12-.33-.17-.59-.17h-5.15Z"/>
    <path class="cls-9" d="M369.54,303.16v4.36c0,.25.06.44.17.58.11.13.32.25.61.33v.34h-4.83v-.34c.28-.07.49-.18.6-.32.12-.14.18-.33.18-.59v-11.18c0-.25-.06-.44-.17-.57-.11-.13-.32-.24-.61-.33v-.34h8.96c1.16,0,2.05.06,2.66.18.61.12,1.16.33,1.64.64.98.64,1.48,1.69,1.48,3.15,0,1.11-.3,1.97-.91,2.59-.61.62-1.58,1.07-2.93,1.35l2.59,3.6c.47.67.85,1.12,1.13,1.36.28.24.6.39.96.46v.34h-5.75v-.34c.42-.11.64-.3.64-.55,0-.18-.13-.45-.39-.82l-2.73-3.91h-3.27ZM369.54,300.68h4.93c.75,0,1.3-.08,1.66-.24.5-.22.76-.66.76-1.31,0-.58-.18-.98-.53-1.21-.35-.23-.98-.34-1.89-.34h-4.93v3.1Z"/>
  </g>
  <g>
    <path class="cls-9" d="M156.48,303.05l2.32,3.47-.32.22c-.23-.21-.42-.32-.56-.32s-.56.2-1.23.59c-1.4.81-2.58,1.35-3.53,1.63s-2.09.42-3.41.42c-2.63,0-4.78-.62-6.47-1.87-.99-.72-1.77-1.62-2.34-2.7-.66-1.23-.99-2.58-.99-4.06,0-2.02.59-3.77,1.77-5.26,1.77-2.24,4.45-3.36,8.04-3.36,1.32,0,2.45.14,3.39.41.94.28,2.12.82,3.54,1.64.68.38,1.09.57,1.23.57s.33-.11.56-.32l.32.22-2.32,3.48-.33-.22c.02-.13.02-.24.02-.33,0-.23-.1-.46-.3-.66-.2-.21-.57-.46-1.09-.75-1.44-.81-2.96-1.21-4.58-1.21-1.9,0-3.42.48-4.55,1.43-1.33,1.11-2,2.57-2,4.36s.67,3.25,2,4.36c1.13.95,2.65,1.43,4.55,1.43,1.61,0,3.14-.41,4.58-1.22.52-.29.88-.54,1.09-.75.2-.21.3-.43.3-.67,0-.09,0-.2-.02-.32l.33-.23Z"/>
    <path class="cls-9" d="M168.69,294.81c2.17,0,3.99.55,5.43,1.66,1.73,1.33,2.6,3.19,2.6,5.58,0,2.24-.87,4.02-2.6,5.36-1.43,1.11-3.24,1.66-5.41,1.66s-3.98-.55-5.41-1.66c-1.74-1.33-2.61-3.16-2.61-5.47s.87-4.16,2.61-5.47c1.44-1.08,3.24-1.63,5.39-1.66ZM168.7,297.4c-1.41,0-2.56.45-3.45,1.35-.82.85-1.23,1.91-1.23,3.18s.41,2.33,1.23,3.17c.89.91,2.04,1.37,3.46,1.37s2.56-.46,3.45-1.37c.82-.84,1.23-1.88,1.23-3.11,0-1.34-.41-2.42-1.23-3.25-.9-.89-2.05-1.34-3.46-1.35Z"/>
    <path class="cls-9" d="M187.55,308.77l-4.98-8.99v7.73c0,.25.06.45.17.58.11.13.32.25.61.33v.34h-4.54v-.34c.28-.07.49-.18.6-.32.12-.14.18-.33.18-.59v-11.18c0-.25-.06-.45-.17-.58-.11-.13-.32-.24-.61-.32v-.34h5.77v.34c-.38.12-.57.35-.57.7s.14.74.42,1.22l3.41,6.18,3.43-6.1c.39-.64.59-1.1.59-1.37,0-.33-.2-.54-.6-.63v-.34h5.63v.34c-.29.08-.5.19-.61.32-.11.13-.17.33-.17.58v11.17c0,.25.06.45.17.58.11.14.32.25.61.33v.34h-4.83v-.34c.28-.07.49-.18.6-.32.12-.14.18-.33.18-.59v-7.74l-5.28,8.99Z"/>
    <path class="cls-9" d="M208.01,308.77l-4.98-8.99v7.73c0,.25.06.45.17.58.11.13.32.25.61.33v.34h-4.54v-.34c.28-.07.49-.18.6-.32.12-.14.18-.33.18-.59v-11.18c0-.25-.06-.45-.17-.58-.11-.13-.32-.24-.61-.32v-.34h5.77v.34c-.38.12-.57.35-.57.7s.14.74.42,1.22l3.41,6.18,3.43-6.1c.39-.64.59-1.1.59-1.37,0-.33-.2-.54-.6-.63v-.34h5.63v.34c-.29.08-.5.19-.61.32-.11.13-.17.33-.17.58v11.17c0,.25.06.45.17.58.11.14.32.25.61.33v.34h-4.83v-.34c.28-.07.49-.18.6-.32.12-.14.18-.33.18-.59v-7.74l-5.28,8.99Z"/>
    <path class="cls-9" d="M230.09,305.35h-6.29l-.71,1.49c-.17.36-.26.64-.26.84,0,.39.26.64.78.74v.34h-5.02v-.34c.31-.05.54-.14.69-.28.15-.14.33-.41.53-.82l4.99-10.1c.19-.38.28-.72.28-1,0-.33-.23-.59-.68-.78v-.34h5.31v.34c-.45.18-.67.46-.67.83,0,.27.1.6.31.99l5.17,9.8c.28.53.51.88.67,1.03s.41.27.74.33v.34h-5.58v-.34c.53-.09.79-.34.79-.74,0-.25-.1-.56-.31-.94l-.75-1.4ZM229.11,303.44l-2.24-4.4-2.13,4.4h4.37Z"/>
    <path class="cls-9" d="M240.83,299.76v7.75c0,.25.06.45.18.58.12.14.32.25.6.33v.34h-4.54v-.34c.28-.07.49-.18.6-.32.12-.14.18-.33.18-.59v-11.18c0-.25-.06-.44-.17-.57-.11-.13-.32-.24-.61-.33v-.34h5.25v.34c-.36.09-.54.25-.54.48,0,.2.13.42.39.68l7.33,7.27v-7.53c0-.25-.06-.45-.17-.58-.11-.13-.32-.24-.61-.32v-.34h4.54v.34c-.29.08-.5.19-.61.32-.11.13-.17.33-.17.58v11.17c0,.25.06.45.17.58s.32.25.61.33v.34h-4.9v-.34c.36-.07.54-.22.54-.45,0-.11-.05-.23-.15-.35s-.32-.36-.67-.71l-7.26-7.15Z"/>
    <path class="cls-9" d="M256.44,307.52v-11.18c0-.25-.06-.44-.17-.57-.11-.13-.32-.24-.61-.33v-.34h8.02c1.67,0,2.98.21,3.94.62,1.35.59,2.32,1.55,2.92,2.9.42.94.62,2.05.62,3.31,0,2.33-.7,4.1-2.09,5.31-.63.54-1.36.93-2.21,1.17-.85.24-1.91.36-3.18.36h-8.02v-.34c.28-.07.49-.18.6-.32.12-.14.18-.33.18-.59ZM259.71,306.29h3.49c1.6,0,2.77-.37,3.49-1.1.76-.76,1.13-1.85,1.13-3.26s-.38-2.49-1.13-3.26c-.37-.38-.84-.66-1.39-.84-.55-.17-1.25-.26-2.1-.26h-3.49v8.71Z"/>
    <path class="cls-9" d="M295.94,303.05l2.32,3.47-.32.22c-.23-.21-.42-.32-.56-.32s-.56.2-1.23.59c-1.4.81-2.58,1.35-3.53,1.63s-2.09.42-3.41.42c-2.63,0-4.78-.62-6.47-1.87-.99-.72-1.77-1.62-2.34-2.7-.66-1.23-.99-2.58-.99-4.06,0-2.02.59-3.77,1.77-5.26,1.77-2.24,4.45-3.36,8.04-3.36,1.32,0,2.45.14,3.39.41.94.28,2.12.82,3.54,1.64.68.38,1.09.57,1.23.57s.33-.11.56-.32l.32.22-2.32,3.48-.33-.22c.02-.13.02-.24.02-.33,0-.23-.1-.46-.3-.66s-.57-.46-1.09-.75c-1.44-.81-2.96-1.21-4.58-1.21-1.9,0-3.42.48-4.55,1.43-1.33,1.11-2,2.57-2,4.36s.67,3.25,2,4.36c1.13.95,2.65,1.43,4.55,1.43,1.61,0,3.14-.41,4.58-1.22.52-.29.88-.54,1.09-.75.2-.21.3-.43.3-.67,0-.09,0-.2-.02-.32l.33-.23Z"/>
    <path class="cls-9" d="M304.51,302.96v3.33h8.68c.25,0,.45-.06.58-.17.13-.11.24-.32.32-.61h.34v4.04h-.34c-.07-.29-.18-.49-.32-.6s-.33-.18-.59-.18h-12.73v-.34c.29-.07.49-.18.6-.32.12-.14.18-.33.18-.59v-11.18c0-.25-.06-.44-.17-.57-.11-.13-.32-.24-.61-.33v-.34h12.35c.26,0,.46-.06.59-.17.13-.11.24-.32.32-.61h.33v4.04h-.33c-.08-.3-.19-.5-.32-.61-.13-.11-.33-.17-.59-.17h-8.3v3h5.15c.25,0,.45-.06.58-.17.13-.11.25-.32.33-.61h.33v3.94h-.33c-.08-.29-.19-.49-.32-.61-.13-.12-.33-.17-.59-.17h-5.15Z"/>
    <path class="cls-9" d="M320.25,299.76v7.75c0,.25.06.45.18.58.12.14.32.25.6.33v.34h-4.54v-.34c.28-.07.49-.18.6-.32.12-.14.18-.33.18-.59v-11.18c0-.25-.06-.44-.17-.57-.11-.13-.32-.24-.61-.33v-.34h5.25v.34c-.36.09-.54.25-.54.48,0,.2.13.42.39.68l7.33,7.27v-7.53c0-.25-.06-.45-.17-.58-.11-.13-.32-.24-.61-.32v-.34h4.54v.34c-.29.08-.5.19-.61.32-.11.13-.17.33-.17.58v11.17c0,.25.06.45.17.58.11.13.32.25.61.33v.34h-4.9v-.34c.36-.07.54-.22.54-.45,0-.11-.05-.23-.15-.35s-.32-.36-.67-.71l-7.26-7.15Z"/>
    <path class="cls-9" d="M342.62,297.58v9.93c0,.25.06.45.17.58.11.13.32.25.61.33v.34h-4.83v-.34c.29-.07.49-.18.6-.32.12-.14.18-.33.18-.59v-9.94h-4.03c-.26,0-.46.06-.59.17-.13.12-.24.32-.32.61h-.33v-4.04h.33c.07.29.18.49.31.6.13.12.33.18.59.18h11.33c.26,0,.46-.06.59-.17.13-.11.24-.32.32-.61h.33v4.04h-.33c-.08-.29-.19-.49-.32-.61-.13-.12-.33-.17-.59-.17h-4.03Z"/>
    <path class="cls-9" d="M353.5,302.96v3.33h8.68c.25,0,.45-.06.58-.17s.24-.32.32-.61h.34v4.04h-.34c-.07-.29-.18-.49-.32-.6-.14-.12-.33-.18-.59-.18h-12.73v-.34c.28-.07.49-.18.6-.32.12-.14.18-.33.18-.59v-11.18c0-.25-.06-.44-.17-.57-.11-.13-.32-.24-.61-.33v-.34h12.35c.26,0,.46-.06.59-.17.13-.11.24-.32.32-.61h.33v4.04h-.33c-.08-.3-.19-.5-.32-.61-.13-.11-.33-.17-.59-.17h-8.3v3h5.15c.25,0,.45-.06.58-.17.13-.11.25-.32.33-.61h.33v3.94h-.33c-.08-.29-.19-.49-.32-.61-.13-.12-.33-.17-.59-.17h-5.15Z"/>
    <path class="cls-9" d="M369.54,303.16v4.36c0,.25.06.44.17.58.11.13.32.25.61.33v.34h-4.83v-.34c.28-.07.49-.18.6-.32.12-.14.18-.33.18-.59v-11.18c0-.25-.06-.44-.17-.57-.11-.13-.32-.24-.61-.33v-.34h8.96c1.16,0,2.05.06,2.66.18.61.12,1.16.33,1.64.64.98.64,1.48,1.69,1.48,3.15,0,1.11-.3,1.97-.91,2.59-.61.62-1.58,1.07-2.93,1.35l2.59,3.6c.47.67.85,1.12,1.13,1.36.28.24.6.39.96.46v.34h-5.75v-.34c.42-.11.64-.3.64-.55,0-.18-.13-.45-.39-.82l-2.73-3.91h-3.27ZM369.54,300.68h4.93c.75,0,1.3-.08,1.66-.24.5-.22.76-.66.76-1.31,0-.58-.18-.98-.53-1.21-.35-.23-.98-.34-1.89-.34h-4.93v3.1Z"/>
  </g>
  <g>
    <path class="cls-9" d="M156.48,303.05l2.32,3.47-.32.22c-.23-.21-.42-.32-.56-.32s-.56.2-1.23.59c-1.4.81-2.58,1.35-3.53,1.63s-2.09.42-3.41.42c-2.63,0-4.78-.62-6.47-1.87-.99-.72-1.77-1.62-2.34-2.7-.66-1.23-.99-2.58-.99-4.06,0-2.02.59-3.77,1.77-5.26,1.77-2.24,4.45-3.36,8.04-3.36,1.32,0,2.45.14,3.39.41.94.28,2.12.82,3.54,1.64.68.38,1.09.57,1.23.57s.33-.11.56-.32l.32.22-2.32,3.48-.33-.22c.02-.13.02-.24.02-.33,0-.23-.1-.46-.3-.66-.2-.21-.57-.46-1.09-.75-1.44-.81-2.96-1.21-4.58-1.21-1.9,0-3.42.48-4.55,1.43-1.33,1.11-2,2.57-2,4.36s.67,3.25,2,4.36c1.13.95,2.65,1.43,4.55,1.43,1.61,0,3.14-.41,4.58-1.22.52-.29.88-.54,1.09-.75.2-.21.3-.43.3-.67,0-.09,0-.2-.02-.32l.33-.23Z"/>
    <path class="cls-9" d="M168.69,294.81c2.17,0,3.99.55,5.43,1.66,1.73,1.33,2.6,3.19,2.6,5.58,0,2.24-.87,4.02-2.6,5.36-1.43,1.11-3.24,1.66-5.41,1.66s-3.98-.55-5.41-1.66c-1.74-1.33-2.61-3.16-2.61-5.47s.87-4.16,2.61-5.47c1.44-1.08,3.24-1.63,5.39-1.66ZM168.7,297.4c-1.41,0-2.56.45-3.45,1.35-.82.85-1.23,1.91-1.23,3.18s.41,2.33,1.23,3.17c.89.91,2.04,1.37,3.46,1.37s2.56-.46,3.45-1.37c.82-.84,1.23-1.88,1.23-3.11,0-1.34-.41-2.42-1.23-3.25-.9-.89-2.05-1.34-3.46-1.35Z"/>
    <path class="cls-9" d="M187.55,308.77l-4.98-8.99v7.73c0,.25.06.45.17.58.11.13.32.25.61.33v.34h-4.54v-.34c.28-.07.49-.18.6-.32.12-.14.18-.33.18-.59v-11.18c0-.25-.06-.45-.17-.58-.11-.13-.32-.24-.61-.32v-.34h5.77v.34c-.38.12-.57.35-.57.7s.14.74.42,1.22l3.41,6.18,3.43-6.1c.39-.64.59-1.1.59-1.37,0-.33-.2-.54-.6-.63v-.34h5.63v.34c-.29.08-.5.19-.61.32-.11.13-.17.33-.17.58v11.17c0,.25.06.45.17.58.11.14.32.25.61.33v.34h-4.83v-.34c.28-.07.49-.18.6-.32.12-.14.18-.33.18-.59v-7.74l-5.28,8.99Z"/>
    <path class="cls-9" d="M208.01,308.77l-4.98-8.99v7.73c0,.25.06.45.17.58.11.13.32.25.61.33v.34h-4.54v-.34c.28-.07.49-.18.6-.32.12-.14.18-.33.18-.59v-11.18c0-.25-.06-.45-.17-.58-.11-.13-.32-.24-.61-.32v-.34h5.77v.34c-.38.12-.57.35-.57.7s.14.74.42,1.22l3.41,6.18,3.43-6.1c.39-.64.59-1.1.59-1.37,0-.33-.2-.54-.6-.63v-.34h5.63v.34c-.29.08-.5.19-.61.32-.11.13-.17.33-.17.58v11.17c0,.25.06.45.17.58.11.14.32.25.61.33v.34h-4.83v-.34c.28-.07.49-.18.6-.32.12-.14.18-.33.18-.59v-7.74l-5.28,8.99Z"/>
    <path class="cls-9" d="M230.09,305.35h-6.29l-.71,1.49c-.17.36-.26.64-.26.84,0,.39.26.64.78.74v.34h-5.02v-.34c.31-.05.54-.14.69-.28.15-.14.33-.41.53-.82l4.99-10.1c.19-.38.28-.72.28-1,0-.33-.23-.59-.68-.78v-.34h5.31v.34c-.45.18-.67.46-.67.83,0,.27.1.6.31.99l5.17,9.8c.28.53.51.88.67,1.03s.41.27.74.33v.34h-5.58v-.34c.53-.09.79-.34.79-.74,0-.25-.1-.56-.31-.94l-.75-1.4ZM229.11,303.44l-2.24-4.4-2.13,4.4h4.37Z"/>
    <path class="cls-9" d="M240.83,299.76v7.75c0,.25.06.45.18.58.12.14.32.25.6.33v.34h-4.54v-.34c.28-.07.49-.18.6-.32.12-.14.18-.33.18-.59v-11.18c0-.25-.06-.44-.17-.57-.11-.13-.32-.24-.61-.33v-.34h5.25v.34c-.36.09-.54.25-.54.48,0,.2.13.42.39.68l7.33,7.27v-7.53c0-.25-.06-.45-.17-.58-.11-.13-.32-.24-.61-.32v-.34h4.54v.34c-.29.08-.5.19-.61.32-.11.13-.17.33-.17.58v11.17c0,.25.06.45.17.58s.32.25.61.33v.34h-4.9v-.34c.36-.07.54-.22.54-.45,0-.11-.05-.23-.15-.35s-.32-.36-.67-.71l-7.26-7.15Z"/>
    <path class="cls-9" d="M256.44,307.52v-11.18c0-.25-.06-.44-.17-.57-.11-.13-.32-.24-.61-.33v-.34h8.02c1.67,0,2.98.21,3.94.62,1.35.59,2.32,1.55,2.92,2.9.42.94.62,2.05.62,3.31,0,2.33-.7,4.1-2.09,5.31-.63.54-1.36.93-2.21,1.17-.85.24-1.91.36-3.18.36h-8.02v-.34c.28-.07.49-.18.6-.32.12-.14.18-.33.18-.59ZM259.71,306.29h3.49c1.6,0,2.77-.37,3.49-1.1.76-.76,1.13-1.85,1.13-3.26s-.38-2.49-1.13-3.26c-.37-.38-.84-.66-1.39-.84-.55-.17-1.25-.26-2.1-.26h-3.49v8.71Z"/>
    <path class="cls-9" d="M295.94,303.05l2.32,3.47-.32.22c-.23-.21-.42-.32-.56-.32s-.56.2-1.23.59c-1.4.81-2.58,1.35-3.53,1.63s-2.09.42-3.41.42c-2.63,0-4.78-.62-6.47-1.87-.99-.72-1.77-1.62-2.34-2.7-.66-1.23-.99-2.58-.99-4.06,0-2.02.59-3.77,1.77-5.26,1.77-2.24,4.45-3.36,8.04-3.36,1.32,0,2.45.14,3.39.41.94.28,2.12.82,3.54,1.64.68.38,1.09.57,1.23.57s.33-.11.56-.32l.32.22-2.32,3.48-.33-.22c.02-.13.02-.24.02-.33,0-.23-.1-.46-.3-.66s-.57-.46-1.09-.75c-1.44-.81-2.96-1.21-4.58-1.21-1.9,0-3.42.48-4.55,1.43-1.33,1.11-2,2.57-2,4.36s.67,3.25,2,4.36c1.13.95,2.65,1.43,4.55,1.43,1.61,0,3.14-.41,4.58-1.22.52-.29.88-.54,1.09-.75.2-.21.3-.43.3-.67,0-.09,0-.2-.02-.32l.33-.23Z"/>
    <path class="cls-9" d="M304.51,302.96v3.33h8.68c.25,0,.45-.06.58-.17.13-.11.24-.32.32-.61h.34v4.04h-.34c-.07-.29-.18-.49-.32-.6s-.33-.18-.59-.18h-12.73v-.34c.29-.07.49-.18.6-.32.12-.14.18-.33.18-.59v-11.18c0-.25-.06-.44-.17-.57-.11-.13-.32-.24-.61-.33v-.34h12.35c.26,0,.46-.06.59-.17.13-.11.24-.32.32-.61h.33v4.04h-.33c-.08-.3-.19-.5-.32-.61-.13-.11-.33-.17-.59-.17h-8.3v3h5.15c.25,0,.45-.06.58-.17.13-.11.25-.32.33-.61h.33v3.94h-.33c-.08-.29-.19-.49-.32-.61-.13-.12-.33-.17-.59-.17h-5.15Z"/>
    <path class="cls-9" d="M320.25,299.76v7.75c0,.25.06.45.18.58.12.14.32.25.6.33v.34h-4.54v-.34c.28-.07.49-.18.6-.32.12-.14.18-.33.18-.59v-11.18c0-.25-.06-.44-.17-.57-.11-.13-.32-.24-.61-.33v-.34h5.25v.34c-.36.09-.54.25-.54.48,0,.2.13.42.39.68l7.33,7.27v-7.53c0-.25-.06-.45-.17-.58-.11-.13-.32-.24-.61-.32v-.34h4.54v.34c-.29.08-.5.19-.61.32-.11.13-.17.33-.17.58v11.17c0,.25.06.45.17.58.11.13.32.25.61.33v.34h-4.9v-.34c.36-.07.54-.22.54-.45,0-.11-.05-.23-.15-.35s-.32-.36-.67-.71l-7.26-7.15Z"/>
    <path class="cls-9" d="M342.62,297.58v9.93c0,.25.06.45.17.58.11.13.32.25.61.33v.34h-4.83v-.34c.29-.07.49-.18.6-.32.12-.14.18-.33.18-.59v-9.94h-4.03c-.26,0-.46.06-.59.17-.13.12-.24.32-.32.61h-.33v-4.04h.33c.07.29.18.49.31.6.13.12.33.18.59.18h11.33c.26,0,.46-.06.59-.17.13-.11.24-.32.32-.61h.33v4.04h-.33c-.08-.29-.19-.49-.32-.61-.13-.12-.33-.17-.59-.17h-4.03Z"/>
    <path class="cls-9" d="M353.5,302.96v3.33h8.68c.25,0,.45-.06.58-.17s.24-.32.32-.61h.34v4.04h-.34c-.07-.29-.18-.49-.32-.6-.14-.12-.33-.18-.59-.18h-12.73v-.34c.28-.07.49-.18.6-.32.12-.14.18-.33.18-.59v-11.18c0-.25-.06-.44-.17-.57-.11-.13-.32-.24-.61-.33v-.34h12.35c.26,0,.46-.06.59-.17.13-.11.24-.32.32-.61h.33v4.04h-.33c-.08-.3-.19-.5-.32-.61-.13-.11-.33-.17-.59-.17h-8.3v3h5.15c.25,0,.45-.06.58-.17.13-.11.25-.32.33-.61h.33v3.94h-.33c-.08-.29-.19-.49-.32-.61-.13-.12-.33-.17-.59-.17h-5.15Z"/>
    <path class="cls-9" d="M369.54,303.16v4.36c0,.25.06.44.17.58.11.13.32.25.61.33v.34h-4.83v-.34c.28-.07.49-.18.6-.32.12-.14.18-.33.18-.59v-11.18c0-.25-.06-.44-.17-.57-.11-.13-.32-.24-.61-.33v-.34h8.96c1.16,0,2.05.06,2.66.18.61.12,1.16.33,1.64.64.98.64,1.48,1.69,1.48,3.15,0,1.11-.3,1.97-.91,2.59-.61.62-1.58,1.07-2.93,1.35l2.59,3.6c.47.67.85,1.12,1.13,1.36.28.24.6.39.96.46v.34h-5.75v-.34c.42-.11.64-.3.64-.55,0-.18-.13-.45-.39-.82l-2.73-3.91h-3.27ZM369.54,300.68h4.93c.75,0,1.3-.08,1.66-.24.5-.22.76-.66.76-1.31,0-.58-.18-.98-.53-1.21-.35-.23-.98-.34-1.89-.34h-4.93v3.1Z"/>
  </g>
</svg>