<?xml version="1.0" encoding="UTF-8"?><svg id="Layer_1" xmlns="http://www.w3.org/2000/svg" xmlns:xlink="http://www.w3.org/1999/xlink" viewBox="0 0 379.46 304.47"><defs><style>.cls-1{fill:black;}.cls-2{fill:black;}.cls-3{fill:black;}.cls-4{fill:black;}.cls-5{fill:black;}.cls-6{fill:black;}</style><linearGradient id="linear-gradient" x1="136.71" y1="42.94" x2="279.58" y2="42.94" gradientUnits="userSpaceOnUse"><stop offset="0" stop-color="#ec008c"/><stop offset=".96" stop-color="#ef4136"/><stop offset="1" stop-color="#da1c5c"/></linearGradient><linearGradient id="linear-gradient-2" x1="110.81" y1="92.8" x2="202.65" y2="92.8" xlink:href="#linear-gradient"/><linearGradient id="linear-gradient-3" x1="79.95" y1="106.07" x2="205.69" y2="106.07" xlink:href="#linear-gradient"/><linearGradient id="linear-gradient-4" x1="57.82" y1="121.59" x2="202.07" y2="121.59" xlink:href="#linear-gradient"/><linearGradient id="linear-gradient-5" x1="88.26" y1="190.27" x2="269.35" y2="190.27" xlink:href="#linear-gradient"/><linearGradient id="linear-gradient-6" x1="0" y1="290.51" x2="379.46" y2="290.51" gradientUnits="userSpaceOnUse"><stop offset=".04" stop-color="#ec008c"/><stop offset=".84" stop-color="#ef4136"/><stop offset=".94" stop-color="#da1c5c"/></linearGradient></defs><path class="cls-6" d="M149.25,85.02c10.48-9.19,22.79-35.95,51.11-36.74,28.32-.79,47.95,27.78,58.97,24.93,11.02-2.85,23.09-36.63,19.66-44.61S235.74-5.51,196.43,1.05c-20.97,1.31-53.02,13.84-57.66,24.93-4.64,11.09,0,0,0,0h0c-2.45,38.12-.27,58.04,6.54,59.78,1.18.3,2.49.06,3.95-.73Z"/><path class="cls-1" d="M138.14,7.18c-13.22-13.24-24.04,4.41-26.04,7.62-6.81,34.9,15.63,77.83,15.63,77.83,6.92,15.73,18.57,37.22,38.06,58.57,12.87,14.1,25.86,24.53,36.86,32.09-10.53-8.54-23.67-20.96-36.06-38.11-15.09-20.89-24.58-33.72-29.25-48.14-3.21-9.19-32.45-67.8.8-89.86Z"/><path class="cls-3" d="M103.56,31.24c-15.82-9.52-22.38,9.71-23.61,13.22,1.19,34.69,32.61,70.26,32.61,70.26,10.25,13.34,26.38,31.05,50.11,46.83,15.66,10.42,30.63,17.33,43.02,21.98-12.15-5.68-27.71-14.45-43.58-27.87-19.34-16.36-31.44-26.35-39.21-38.96-5.18-7.98-46.72-56.87-19.34-85.46Z"/><path class="cls-2" d="M77.02,61.89c-16.55-5.64-18.77,13.49-19.2,16.98,8.05,31.87,44.26,58.48,44.26,58.48,12.16,10.29,30.64,23.44,55.77,33.28,16.59,6.5,31.83,9.89,44.22,11.7-12.39-2.82-28.54-7.81-45.93-17.04-21.18-11.25-34.38-18.07-44.1-28.18-6.4-6.35-54.64-43.26-35.02-75.21Z"/><path class="cls-4" d="M88.26,148.99c8.09,9.52,43.88,49.88,88.54,50.18,8.4.06,16.08-1.31,17.23-1.52,32.37-5.9,52.6-26.98,60.9-36.88,6.41,3.42,14.42,37.26,14.42,37.26-4.24,5.37-10.92,12.55-20.66,18.9-13.67,8.91-26.83,11.93-34.63,13.09-10.37,1.69-30.55,3.56-54.04-4-27.47-8.84-44.28-25.7-51.33-33.69-.8-3.04-14.42-11.02-20.43-43.34Z"/><path class="cls-5" d="M26.02,294.23l3.65,5.46-.5.35c-.36-.33-.65-.5-.88-.5s-.88.31-1.94.92c-2.2,1.27-4.06,2.13-5.56,2.57-1.5.44-3.29.66-5.37.66-4.14,0-7.53-.98-10.18-2.94-1.56-1.14-2.79-2.55-3.69-4.24-1.04-1.93-1.56-4.07-1.56-6.4,0-3.18.93-5.93,2.79-8.28,2.79-3.52,7.01-5.28,12.66-5.28,2.07,0,3.85.22,5.34.65,1.48.44,3.34,1.29,5.57,2.57,1.06.6,1.71.9,1.94.9s.52-.17.88-.5l.5.35-3.65,5.47-.52-.34c.03-.2.04-.38.04-.52,0-.37-.16-.72-.48-1.04-.32-.33-.89-.72-1.71-1.18-2.27-1.28-4.67-1.91-7.2-1.91-3,0-5.38.75-7.16,2.24-2.1,1.75-3.15,4.04-3.15,6.87s1.05,5.12,3.15,6.87c1.78,1.5,4.17,2.24,7.16,2.24,2.54,0,4.94-.64,7.2-1.92.82-.46,1.39-.85,1.71-1.18.32-.33.48-.67.48-1.05,0-.14-.01-.31-.04-.5l.52-.37Z"/><path class="cls-5" d="M45.24,281.26c3.42,0,6.27.87,8.55,2.61,2.73,2.1,4.09,5.03,4.09,8.78,0,3.52-1.36,6.33-4.09,8.43-2.26,1.74-5.09,2.61-8.51,2.61s-6.26-.87-8.51-2.61c-2.74-2.1-4.11-4.97-4.11-8.6s1.37-6.54,4.11-8.6c2.27-1.7,5.09-2.57,8.48-2.61ZM45.26,285.34c-2.22,0-4.03.71-5.42,2.13-1.29,1.33-1.94,3-1.94,5.01s.65,3.66,1.94,4.99c1.4,1.43,3.21,2.15,5.44,2.15s4.03-.72,5.42-2.15c1.29-1.32,1.94-2.95,1.94-4.9,0-2.11-.65-3.82-1.94-5.11-1.41-1.4-3.23-2.11-5.44-2.13Z"/><path class="cls-5" d="M74.93,303.24l-7.85-14.15v12.17c0,.4.09.7.27.91.18.21.5.39.96.53v.54h-7.14v-.54c.45-.12.76-.28.95-.5.19-.22.28-.52.28-.92v-17.59c0-.4-.09-.7-.27-.91-.18-.21-.5-.38-.96-.51v-.54h9.09v.54c-.6.19-.9.56-.9,1.09s.22,1.17.65,1.92l5.36,9.73,5.4-9.6c.61-1.01.92-1.73.92-2.15,0-.53-.31-.86-.94-1v-.54h8.86v.54c-.46.13-.78.3-.96.51s-.27.51-.27.91v17.58c0,.4.09.7.27.92s.5.39.96.52v.54h-7.61v-.54c.45-.12.77-.28.95-.5s.28-.53.28-.92v-12.19l-8.31,14.15Z"/><path class="cls-5" d="M107.14,303.24l-7.85-14.15v12.17c0,.4.09.7.27.91.18.21.5.39.96.53v.54h-7.14v-.54c.45-.12.76-.28.95-.5.19-.22.28-.52.28-.92v-17.59c0-.4-.09-.7-.27-.91-.18-.21-.5-.38-.96-.51v-.54h9.09v.54c-.6.19-.9.56-.9,1.09s.22,1.17.65,1.92l5.36,9.73,5.4-9.6c.61-1.01.92-1.73.92-2.15,0-.53-.31-.86-.94-1v-.54h8.86v.54c-.46.13-.78.3-.96.51s-.27.51-.27.91v17.58c0,.4.09.7.27.92s.5.39.96.52v.54h-7.61v-.54c.45-.12.77-.28.95-.5s.28-.53.28-.92v-12.19l-8.31,14.15Z"/><path class="cls-5" d="M141.88,297.86h-9.89l-1.11,2.34c-.27.56-.4,1-.4,1.33,0,.61.41,1,1.23,1.17v.54h-7.9v-.54c.49-.08.85-.22,1.08-.44.24-.22.52-.65.84-1.29l7.85-15.9c.29-.6.44-1.13.44-1.57,0-.53-.36-.93-1.08-1.23v-.54h8.35v.54c-.71.28-1.06.72-1.06,1.31,0,.42.16.94.48,1.56l8.14,15.42c.45.84.8,1.38,1.06,1.63.26.25.65.42,1.17.52v.54h-8.79v-.54c.83-.14,1.25-.53,1.25-1.17,0-.39-.16-.89-.48-1.47l-1.19-2.2ZM140.33,294.84l-3.52-6.92-3.35,6.92h6.88Z"/><path class="cls-5" d="M158.79,289.06v12.2c0,.4.09.7.28.92.19.22.5.39.95.52v.54h-7.14v-.54c.45-.12.77-.28.95-.5s.28-.52.28-.92v-17.59c0-.4-.09-.7-.27-.9-.18-.2-.5-.38-.96-.52v-.54h8.26v.54c-.56.14-.85.39-.85.75,0,.31.21.67.62,1.08l11.54,11.45v-11.85c0-.4-.09-.7-.27-.91-.18-.21-.5-.38-.96-.51v-.54h7.14v.54c-.46.13-.78.3-.96.51-.18.21-.27.51-.27.91v17.58c0,.4.09.7.27.91.18.21.5.39.96.53v.54h-7.7v-.54c.56-.11.84-.35.84-.7,0-.18-.08-.36-.23-.55s-.51-.57-1.06-1.12l-11.42-11.25Z"/><path class="cls-5" d="M183.36,301.28v-17.59c0-.4-.09-.7-.27-.9-.18-.2-.5-.38-.96-.52v-.54h12.62c2.62,0,4.69.33,6.2.98,2.12.92,3.66,2.45,4.59,4.57.65,1.49.98,3.22.98,5.21,0,3.67-1.09,6.46-3.28,8.35-.99.84-2.15,1.46-3.49,1.83s-3,.57-5,.57h-12.62v-.54c.45-.12.77-.28.95-.5s.28-.52.28-.92ZM188.5,299.34h5.49c2.52,0,4.35-.58,5.49-1.73,1.19-1.2,1.79-2.91,1.79-5.13s-.6-3.92-1.79-5.13c-.59-.6-1.32-1.04-2.19-1.32-.87-.28-1.97-.41-3.3-.41h-5.49v13.71Z"/><path class="cls-5" d="M245.52,294.23l3.65,5.46-.5.35c-.36-.33-.65-.5-.88-.5s-.88.31-1.94.92c-2.2,1.27-4.06,2.13-5.56,2.57-1.5.44-3.29.66-5.37.66-4.14,0-7.53-.98-10.18-2.94-1.56-1.14-2.79-2.55-3.69-4.24-1.04-1.93-1.56-4.07-1.56-6.4,0-3.18.93-5.93,2.78-8.28,2.79-3.52,7.01-5.28,12.66-5.28,2.07,0,3.85.22,5.34.65s3.34,1.29,5.57,2.57c1.06.6,1.71.9,1.94.9s.53-.17.88-.5l.5.35-3.65,5.47-.52-.34c.03-.2.04-.38.04-.52,0-.37-.16-.72-.48-1.04-.32-.33-.89-.72-1.71-1.18-2.27-1.28-4.67-1.91-7.2-1.91-3,0-5.38.75-7.16,2.24-2.1,1.75-3.15,4.04-3.15,6.87s1.05,5.12,3.15,6.87c1.78,1.5,4.17,2.24,7.16,2.24,2.54,0,4.94-.64,7.2-1.92.82-.46,1.39-.85,1.71-1.18.32-.33.48-.67.48-1.05,0-.14-.01-.31-.04-.5l.52-.37Z"/><path class="cls-5" d="M259.01,294.09v5.24h13.66c.4,0,.7-.09.91-.26.21-.18.38-.5.51-.96h.54v6.36h-.54c-.12-.45-.28-.77-.5-.95-.22-.19-.53-.28-.92-.28h-20.03v-.54c.45-.12.77-.28.95-.5s.28-.52.28-.92v-17.59c0-.4-.09-.7-.27-.9-.18-.2-.5-.38-.96-.52v-.54h19.44c.41,0,.72-.09.93-.27.21-.18.38-.5.51-.96h.52v6.36h-.52c-.13-.47-.3-.79-.51-.96-.21-.18-.52-.26-.93-.26h-13.06v4.72h8.1c.4,0,.7-.09.91-.27.21-.18.39-.5.53-.96h.52v6.2h-.52c-.13-.45-.3-.77-.51-.95-.21-.18-.52-.27-.93-.27h-8.1Z"/><path class="cls-5" d="M283.78,289.06v12.2c0,.4.09.7.28.92.19.22.5.39.95.52v.54h-7.14v-.54c.45-.12.77-.28.95-.5s.28-.52.28-.92v-17.59c0-.4-.09-.7-.27-.9-.18-.2-.5-.38-.96-.52v-.54h8.26v.54c-.56.14-.85.39-.85.75,0,.31.21.67.62,1.08l11.54,11.45v-11.85c0-.4-.09-.7-.27-.91-.18-.21-.5-.38-.96-.51v-.54h7.14v.54c-.46.13-.78.3-.96.51-.18.21-.27.51-.27.91v17.58c0,.4.09.7.27.91.18.21.5.39.96.53v.54h-7.7v-.54c.56-.11.84-.35.84-.7,0-.18-.08-.36-.23-.55s-.51-.57-1.06-1.12l-11.42-11.25Z"/><path class="cls-5" d="M318.99,285.62v15.63c0,.4.09.7.27.91.18.21.5.39.96.53v.54h-7.61v-.54c.45-.12.76-.28.95-.5s.28-.52.28-.92v-15.65h-6.34c-.41,0-.72.09-.93.27-.21.18-.38.5-.51.95h-.52v-6.36h.52c.12.45.28.76.49.95.21.19.52.28.93.28h17.84c.41,0,.72-.09.93-.27.21-.18.38-.5.51-.96h.52v6.36h-.52c-.13-.45-.3-.77-.51-.95-.21-.18-.52-.27-.93-.27h-6.34Z"/><path class="cls-5" d="M336.12,294.09v5.24h13.66c.4,0,.7-.09.91-.26.21-.18.38-.5.51-.96h.54v6.36h-.54c-.12-.45-.28-.77-.5-.95-.22-.19-.53-.28-.92-.28h-20.03v-.54c.45-.12.77-.28.95-.5s.28-.52.28-.92v-17.59c0-.4-.09-.7-.27-.9-.18-.2-.5-.38-.96-.52v-.54h19.44c.41,0,.72-.09.93-.27.21-.18.38-.5.51-.96h.52v6.36h-.52c-.13-.47-.3-.79-.51-.96-.21-.18-.52-.26-.93-.26h-13.06v4.72h8.1c.4,0,.7-.09.91-.27.21-.18.39-.5.53-.96h.52v6.2h-.52c-.13-.45-.3-.77-.51-.95-.21-.18-.52-.27-.93-.27h-8.1Z"/><path class="cls-5" d="M361.35,294.4v6.86c0,.4.09.7.27.91.18.21.5.39.96.53v.54h-7.61v-.54c.45-.12.77-.28.95-.5s.28-.52.28-.92v-17.59c0-.4-.09-.7-.27-.9-.18-.2-.5-.38-.96-.52v-.54h14.1c1.83,0,3.23.09,4.19.28s1.82.52,2.57,1.01c1.55,1.01,2.32,2.66,2.32,4.96,0,1.74-.48,3.1-1.43,4.08-.95.98-2.49,1.69-4.62,2.12l4.07,5.67c.74,1.05,1.33,1.76,1.78,2.14.44.38.94.62,1.51.72v.54h-9.05v-.54c.67-.18,1-.47,1-.86,0-.28-.21-.71-.62-1.28l-4.3-6.15h-5.15ZM361.35,290.5h7.76c1.18,0,2.05-.13,2.61-.38.79-.35,1.19-1.03,1.19-2.06,0-.91-.28-1.54-.84-1.9-.56-.36-1.55-.54-2.97-.54h-7.76v4.88Z"/></svg>