<?xml version="1.0" encoding="UTF-8"?>
<svg id="Layer_1" xmlns="http://www.w3.org/2000/svg" viewBox="0 0 500 500">
  <defs>
    <style>
      .cls-1 {
        letter-spacing: 0em;
      }

      .cls-2 {
        font-family: CopperplateGothic-Bold, 'Copperplate Gothic Bold';
        font-size: 24.99px;
        font-weight: 700;
      }

      .cls-2, .cls-3 {
        fill: #fff;
      }

      .cls-4 {
        letter-spacing: 0em;
      }
    </style>
  </defs>
  <g>
    <path class="cls-3" d="M236.27,182.91c5.75-5.03,12.51-19.71,28.05-20.14,15.54-.43,26.32,15.23,32.37,13.67,6.05-1.56,12.67-20.08,10.79-24.46s-23.74-18.7-45.31-15.1c-11.51.72-29.1,7.59-31.65,13.67-2.55,6.08,0,0,0,0h0c-1.34,20.9-.15,31.82,3.59,32.77.65.16,1.37.03,2.17-.4Z"/>
    <path class="cls-3" d="M232.36,139.68c-7.26-7.26-13.19,2.42-14.29,4.18-3.74,19.13,8.58,42.66,8.58,42.66,3.8,8.63,10.19,20.4,20.89,32.11,7.06,7.73,14.19,13.45,20.23,17.59-5.78-4.68-12.99-11.49-19.79-20.89-8.28-11.45-13.49-18.49-16.05-26.39-1.76-5.04-17.81-37.16.44-49.26Z"/>
    <path class="cls-3" d="M212.84,153.42c-8.68-5.22-12.28,5.32-12.96,7.25.65,19.01,17.9,38.51,17.9,38.51,5.62,7.31,14.48,17.02,27.5,25.67,8.6,5.71,16.81,9.5,23.61,12.05-6.67-3.11-15.21-7.92-23.92-15.28-10.62-8.97-17.26-14.44-21.52-21.36-2.84-4.38-25.65-31.18-10.61-46.84Z"/>
    <path class="cls-3" d="M198.27,170.22c-9.08-3.09-10.3,7.39-10.54,9.31,4.42,17.47,24.3,32.06,24.3,32.06,6.67,5.64,16.82,12.85,30.61,18.24,9.1,3.56,17.47,5.42,24.27,6.41-6.8-1.54-15.67-4.28-25.21-9.34-11.63-6.17-18.87-9.91-24.2-15.45-3.51-3.48-29.99-23.71-19.22-41.23Z"/>
    <path class="cls-3" d="M204.44,217.97c4.44,5.22,24.08,27.34,48.6,27.51,4.61.03,8.83-.72,9.46-.83,17.76-3.23,28.87-14.79,33.43-20.21,3.52,1.88,7.92,20.42,7.92,20.42-2.33,2.94-5.99,6.88-11.34,10.36-7.5,4.88-14.73,6.54-19.01,7.18-5.69.93-16.77,1.95-29.66-2.19-15.08-4.85-24.3-14.09-28.18-18.47-.44-1.67-7.92-6.04-11.22-23.76Z"/>
  </g>
  <g>
    <path class="cls-3" d="M236.27,182.91c5.75-5.03,12.51-19.71,28.05-20.14,15.54-.43,26.32,15.23,32.37,13.67,6.05-1.56,12.67-20.08,10.79-24.46s-23.74-18.7-45.31-15.1c-11.51.72-29.1,7.59-31.65,13.67-2.55,6.08,0,0,0,0h0c-1.34,20.9-.15,31.82,3.59,32.77.65.16,1.37.03,2.17-.4Z"/>
    <path class="cls-3" d="M232.36,139.68c-7.26-7.26-13.19,2.42-14.29,4.18-3.74,19.13,8.58,42.66,8.58,42.66,3.8,8.63,10.19,20.4,20.89,32.11,7.06,7.73,14.19,13.45,20.23,17.59-5.78-4.68-12.99-11.49-19.79-20.89-8.28-11.45-13.49-18.49-16.05-26.39-1.76-5.04-17.81-37.16.44-49.26Z"/>
    <path class="cls-3" d="M212.84,153.42c-8.68-5.22-12.28,5.32-12.96,7.25.65,19.01,17.9,38.51,17.9,38.51,5.62,7.31,14.48,17.02,27.5,25.67,8.6,5.71,16.81,9.5,23.61,12.05-6.67-3.11-15.21-7.92-23.92-15.28-10.62-8.97-17.26-14.44-21.52-21.36-2.84-4.38-25.65-31.18-10.61-46.84Z"/>
    <path class="cls-3" d="M198.27,170.22c-9.08-3.09-10.3,7.39-10.54,9.31,4.42,17.47,24.3,32.06,24.3,32.06,6.67,5.64,16.82,12.85,30.61,18.24,9.1,3.56,17.47,5.42,24.27,6.41-6.8-1.54-15.67-4.28-25.21-9.34-11.63-6.17-18.87-9.91-24.2-15.45-3.51-3.48-29.99-23.71-19.22-41.23Z"/>
    <path class="cls-3" d="M204.44,217.97c4.44,5.22,24.08,27.34,48.6,27.51,4.61.03,8.83-.72,9.46-.83,17.76-3.23,28.87-14.79,33.43-20.21,3.52,1.88,7.92,20.42,7.92,20.42-2.33,2.94-5.99,6.88-11.34,10.36-7.5,4.88-14.73,6.54-19.01,7.18-5.69.93-16.77,1.95-29.66-2.19-15.08-4.85-24.3-14.09-28.18-18.47-.44-1.67-7.92-6.04-11.22-23.76Z"/>
  </g>
  <g>
    <path class="cls-3" d="M236.27,182.91c5.75-5.03,12.51-19.71,28.05-20.14,15.54-.43,26.32,15.23,32.37,13.67,6.05-1.56,12.67-20.08,10.79-24.46s-23.74-18.7-45.31-15.1c-11.51.72-29.1,7.59-31.65,13.67-2.55,6.08,0,0,0,0h0c-1.34,20.9-.15,31.82,3.59,32.77.65.16,1.37.03,2.17-.4Z"/>
    <path class="cls-3" d="M232.36,139.68c-7.26-7.26-13.19,2.42-14.29,4.18-3.74,19.13,8.58,42.66,8.58,42.66,3.8,8.63,10.19,20.4,20.89,32.11,7.06,7.73,14.19,13.45,20.23,17.59-5.78-4.68-12.99-11.49-19.79-20.89-8.28-11.45-13.49-18.49-16.05-26.39-1.76-5.04-17.81-37.16.44-49.26Z"/>
    <path class="cls-3" d="M212.84,153.42c-8.68-5.22-12.28,5.32-12.96,7.25.65,19.01,17.9,38.51,17.9,38.51,5.62,7.31,14.48,17.02,27.5,25.67,8.6,5.71,16.81,9.5,23.61,12.05-6.67-3.11-15.21-7.92-23.92-15.28-10.62-8.97-17.26-14.44-21.52-21.36-2.84-4.38-25.65-31.18-10.61-46.84Z"/>
    <path class="cls-3" d="M198.27,170.22c-9.08-3.09-10.3,7.39-10.54,9.31,4.42,17.47,24.3,32.06,24.3,32.06,6.67,5.64,16.82,12.85,30.61,18.24,9.1,3.56,17.47,5.42,24.27,6.41-6.8-1.54-15.67-4.28-25.21-9.34-11.63-6.17-18.87-9.91-24.2-15.45-3.51-3.48-29.99-23.71-19.22-41.23Z"/>
    <path class="cls-3" d="M204.44,217.97c4.44,5.22,24.08,27.34,48.6,27.51,4.61.03,8.83-.72,9.46-.83,17.76-3.23,28.87-14.79,33.43-20.21,3.52,1.88,7.92,20.42,7.92,20.42-2.33,2.94-5.99,6.88-11.34,10.36-7.5,4.88-14.73,6.54-19.01,7.18-5.69.93-16.77,1.95-29.66-2.19-15.08-4.85-24.3-14.09-28.18-18.47-.44-1.67-7.92-6.04-11.22-23.76Z"/>
  </g>
  <text class="cls-2" transform="translate(138.83 308.77)"><tspan x="0" y="0">Command Cen</tspan><tspan class="cls-4" x="195.05" y="0">t</tspan><tspan class="cls-1" x="209.42" y="0">er</tspan></text>
  <text class="cls-2" transform="translate(138.83 308.77)"><tspan x="0" y="0">Command Cen</tspan><tspan class="cls-4" x="195.05" y="0">t</tspan><tspan class="cls-1" x="209.42" y="0">er</tspan></text>
  <text class="cls-2" transform="translate(138.83 308.77)"><tspan x="0" y="0">Command Cen</tspan><tspan class="cls-4" x="195.05" y="0">t</tspan><tspan class="cls-1" x="209.42" y="0">er</tspan></text>
</svg>